<svg width="211" height="45" viewBox="0 0 211 45" fill="none" xmlns="http://www.w3.org/2000/svg">
<g clip-path="url(#clip0_11_84)">
<path d="M66.0803 28.7267L70.1556 27.9245C70.3841 29.2615 70.9935 30.2929 71.9838 31.0187C72.974 31.7445 74.307 32.1265 75.9829 32.1265C77.5063 32.1265 78.7251 31.7827 79.6773 31.1333C80.6294 30.4457 81.1245 29.6053 81.1245 28.5739C81.1245 27.8863 80.9341 27.2751 80.5152 26.7784C80.0962 26.2818 79.563 25.8616 78.8774 25.5942C78.1919 25.3268 77.4301 25.0212 76.5541 24.7538C75.6782 24.4864 74.8022 24.2572 73.8881 24.028C72.974 23.837 72.098 23.5314 71.222 23.1494C70.346 22.7674 69.5843 22.3472 68.8987 21.8888C68.2132 21.4304 67.68 20.781 67.261 19.9406C66.8421 19.1002 66.6516 18.1452 66.6516 17.0756C66.6516 15.0509 67.5276 13.4083 69.2415 12.0713C70.9554 10.7343 73.0883 10.0849 75.6782 10.0849C78.23 10.0849 80.3247 10.7343 82.0005 11.9949C83.6764 13.2555 84.6666 14.8981 85.0094 16.8846L80.896 17.6868C80.6675 16.4262 80.0962 15.4329 79.144 14.6307C78.1919 13.8667 76.9731 13.4465 75.5258 13.4465C74.1547 13.4465 73.0502 13.7903 72.1742 14.4015C71.2982 15.0509 70.8412 15.8532 70.8412 16.8464C70.8412 17.6868 71.1839 18.4126 71.9076 18.9856C72.6312 19.5586 73.5072 19.9406 74.5736 20.208C75.6401 20.4372 76.8208 20.781 78.0395 21.163C79.2964 21.545 80.439 21.9652 81.5054 22.4236C82.5718 22.882 83.4859 23.646 84.1715 24.6392C84.8951 25.6706 85.2379 26.9312 85.2379 28.4211C85.2379 30.4839 84.3238 32.1647 82.5338 33.5399C80.7437 34.8769 78.4966 35.5645 75.7924 35.5645C73.1264 35.5645 70.8792 34.9533 69.1273 33.7309C67.4134 32.4703 66.385 30.7895 66.0803 28.7267Z" fill="white"/>
<path d="M96.6258 16.7318C98.8729 16.7318 100.701 17.3048 102.11 18.4508C103.52 19.5968 104.243 21.2012 104.243 23.3404V35.2207H100.396V30.3693C99.2538 33.8073 96.9305 35.5263 93.4646 35.5263C91.865 35.5263 90.532 35.0679 89.4275 34.1129C88.361 33.1961 87.8278 31.9737 87.8278 30.4457C87.8278 28.6885 88.4753 27.3514 89.7702 26.4728C91.0652 25.5942 92.7029 25.0212 94.7215 24.8302L98.3397 24.4864C99.7109 24.3718 100.396 23.7606 100.396 22.7292C100.396 21.8506 100.054 21.163 99.3681 20.6282C98.6825 20.0934 97.7684 19.8642 96.6258 19.8642C95.4832 19.8642 94.493 20.1316 93.7312 20.7046C92.9314 21.2776 92.4363 22.0798 92.2078 23.1876L88.3991 22.309C88.7419 20.59 89.656 19.253 91.1414 18.2598C92.6267 17.2284 94.4549 16.7318 96.6258 16.7318ZM94.7215 32.5085C96.3211 32.5085 97.6542 32.0119 98.7587 30.9805C99.8632 29.9491 100.396 28.7649 100.396 27.3896V26.3964C100.092 26.8548 99.4062 27.1604 98.2636 27.275L94.7215 27.6952C93.8074 27.8098 93.0457 28.0773 92.5125 28.4975C91.9793 28.9177 91.6746 29.4525 91.6746 30.1783C91.6746 30.9041 91.9412 31.4389 92.5125 31.8973C93.0457 32.3175 93.8074 32.5085 94.7215 32.5085Z" fill="white"/>
<path d="M123.286 22.1944V17.0755H127.133V33.2343C127.133 35.9083 126.181 38.1239 124.277 39.9193C122.372 41.7148 120.011 42.5934 117.231 42.5934C115.25 42.5934 113.498 42.135 111.937 41.2182C110.375 40.3013 109.233 39.0407 108.433 37.5127L111.899 35.8319C112.394 36.8633 113.117 37.7037 114.031 38.2767C114.946 38.8879 116.012 39.1935 117.193 39.1935C118.907 39.1935 120.354 38.6205 121.496 37.4745C122.677 36.3285 123.248 34.9151 123.248 33.1961V29.6435C122.639 31.2861 121.687 32.6231 120.392 33.6163C119.097 34.6095 117.573 35.1061 115.822 35.1061C113.422 35.1061 111.403 34.2275 109.804 32.4703C108.204 30.7131 107.404 28.5356 107.404 25.8998C107.404 23.264 108.204 21.0866 109.804 19.3294C111.403 17.5721 113.422 16.6935 115.822 16.6935C117.535 16.6935 119.059 17.1901 120.392 18.1834C121.763 19.2148 122.715 20.5518 123.286 22.1944ZM117.269 31.7445C118.983 31.7445 120.43 31.1715 121.573 30.0637C122.715 28.9558 123.286 27.5806 123.286 25.938C123.286 24.2954 122.715 22.9202 121.573 21.8124C120.43 20.7046 118.983 20.1698 117.269 20.1698C115.593 20.1698 114.222 20.7428 113.079 21.8506C111.937 22.9584 111.365 24.3336 111.365 25.9762C111.365 27.6188 111.937 28.9941 113.079 30.1019C114.184 31.1715 115.593 31.7445 117.269 31.7445Z" fill="white"/>
<path d="M140.235 16.7318C143.244 16.7318 145.681 17.7632 147.548 19.8642C149.414 21.927 150.176 24.4482 149.871 27.3896H134.408C134.674 28.8413 135.36 30.0255 136.503 30.9423C137.607 31.8591 138.978 32.3175 140.578 32.3175C141.797 32.3175 142.901 32.0119 143.853 31.4389C144.805 30.8659 145.567 30.0637 146.1 29.0705L149.338 30.4457C148.5 31.9737 147.319 33.1961 145.796 34.1129C144.272 35.0297 142.482 35.4881 140.502 35.4881C137.683 35.4881 135.36 34.6095 133.456 32.8141C131.551 31.0187 130.599 28.8031 130.599 26.129C130.599 23.455 131.513 21.2394 133.379 19.4058C135.246 17.5722 137.493 16.7318 140.235 16.7318ZM140.235 19.9406C138.826 19.9406 137.607 20.3608 136.541 21.2012C135.512 22.0416 134.827 23.1494 134.484 24.4864H145.986C145.681 23.1494 144.996 22.0416 143.968 21.2012C142.901 20.3608 141.682 19.9406 140.235 19.9406Z" fill="white"/>
<path d="M155.279 32.8523C153.375 31.0569 152.423 28.8413 152.423 26.1672C152.423 23.4932 153.375 21.2776 155.279 19.444C157.184 17.6486 159.545 16.7318 162.325 16.7318C165.144 16.7318 167.467 17.6486 169.371 19.444C171.276 21.2394 172.228 23.4932 172.228 26.1672C172.228 28.8413 171.276 31.0569 169.371 32.8523C167.467 34.6477 165.106 35.5263 162.325 35.5263C159.507 35.5263 157.184 34.6477 155.279 32.8523ZM158.098 21.8888C156.955 23.0348 156.384 24.4482 156.384 26.1672C156.384 27.8862 156.955 29.2997 158.098 30.4075C159.24 31.5535 160.649 32.1265 162.325 32.1265C164.039 32.1265 165.448 31.5535 166.591 30.4075C167.734 29.2615 168.305 27.8481 168.305 26.1672C168.305 24.4482 167.734 22.9966 166.591 21.8888C165.448 20.7428 164.039 20.1698 162.325 20.1698C160.649 20.1698 159.24 20.7428 158.098 21.8888Z" fill="white"/>
<path d="M175.237 27.6571V17.0756H179.083V27.6571C179.083 28.9941 179.54 30.0637 180.416 30.8659C181.292 31.6681 182.397 32.0883 183.768 32.0883C185.101 32.0883 186.206 31.6681 187.082 30.8659C187.958 30.0637 188.415 28.9941 188.415 27.6571V17.0756H192.261V27.6571C192.261 29.9873 191.462 31.8591 189.862 33.3107C188.262 34.7623 186.244 35.4881 183.768 35.4881C181.292 35.4881 179.236 34.7623 177.636 33.3107C176.036 31.8591 175.237 29.9873 175.237 27.6571Z" fill="white"/>
<path d="M195.118 30.4075L198.965 29.6435C199.307 31.5917 200.679 32.5467 203.078 32.5467C204.297 32.5467 205.287 32.3175 206.011 31.8591C206.772 31.4007 207.115 30.8277 207.115 30.1019C207.115 29.3379 206.734 28.7649 205.934 28.3829C205.135 28.0009 204.221 27.6953 203.078 27.5425C201.973 27.3515 200.831 27.1604 199.688 26.893C198.546 26.6256 197.593 26.129 196.832 25.365C196.032 24.601 195.651 23.5696 195.651 22.2708C195.651 20.7046 196.337 19.3676 197.746 18.3362C199.155 17.3048 200.907 16.77 203.04 16.77C205.173 16.77 206.887 17.2284 208.258 18.1452C209.629 19.062 210.429 20.3226 210.695 21.8888L206.849 22.6528C206.544 20.7046 205.287 19.7496 203.04 19.7496C202.012 19.7496 201.174 19.9788 200.526 20.399C199.879 20.8192 199.536 21.3922 199.536 22.0798C199.536 22.691 199.803 23.1876 200.374 23.5696C200.945 23.9516 201.631 24.1808 202.507 24.2954C203.345 24.41 204.297 24.601 205.287 24.8302C206.277 25.0594 207.191 25.3268 208.067 25.6324C208.905 25.938 209.629 26.4346 210.2 27.1986C210.771 27.9627 211.038 28.9177 211.038 30.0255C211.038 31.5917 210.276 32.9287 208.753 33.9601C207.229 35.0297 205.363 35.5263 203.116 35.5263C200.907 35.5263 199.079 35.0679 197.708 34.1511C196.222 33.2343 195.384 31.9737 195.118 30.4075Z" fill="white"/>
<path d="M43.1141 22.5H11.2356C5.02744 22.5 0 17.4576 0 11.2691C0 5.04245 5.02744 0 11.2356 0H43.1522C49.3603 0 54.3877 5.04245 54.3877 11.2691C54.3496 17.4576 49.3222 22.5 43.1141 22.5Z" fill="url(#paint0_linear_11_84)"/>
<path d="M43.1141 45H11.2356C5.02744 45 0 39.9576 0 33.7691C0 27.5424 5.02744 22.5 11.2356 22.5H43.1522C49.3603 22.5 54.3877 27.5424 54.3877 33.7691C54.3496 39.9576 49.3222 45 43.1141 45Z" fill="url(#paint1_linear_11_84)"/>
</g>
<defs>
<linearGradient id="paint0_linear_11_84" x1="3.45329e-08" y1="11.2503" x2="54.3328" y2="11.2503" gradientUnits="userSpaceOnUse">
<stop offset="0.1184" stop-color="#FF931E"/>
<stop offset="0.2133" stop-color="#FF9624" stop-opacity="0.8924"/>
<stop offset="0.336" stop-color="#FE9D34" stop-opacity="0.7532"/>
<stop offset="0.4741" stop-color="#FCA94F" stop-opacity="0.5966"/>
<stop offset="0.6234" stop-color="#FAB974" stop-opacity="0.4272"/>
<stop offset="0.7818" stop-color="#F7CFA4" stop-opacity="0.2475"/>
<stop offset="0.9454" stop-color="#F3E9DD" stop-opacity="0.061931"/>
<stop offset="1" stop-color="#F2F2F2" stop-opacity="0"/>
</linearGradient>
<linearGradient id="paint1_linear_11_84" x1="0" y1="33.7509" x2="54.3328" y2="33.7509" gradientUnits="userSpaceOnUse">
<stop offset="0.000615519" stop-color="#F2F2F2" stop-opacity="0"/>
<stop offset="0.1008" stop-color="#F4E2CF" stop-opacity="0.1195"/>
<stop offset="0.2963" stop-color="#F8C691" stop-opacity="0.3526"/>
<stop offset="0.4749" stop-color="#FBB05F" stop-opacity="0.5656"/>
<stop offset="0.6306" stop-color="#FDA03C" stop-opacity="0.7512"/>
<stop offset="0.7573" stop-color="#FF9726" stop-opacity="0.9023"/>
<stop offset="0.8392" stop-color="#FF931E"/>
</linearGradient>
<clipPath id="clip0_11_84">
<rect width="211" height="45" fill="white"/>
</clipPath>
</defs>
</svg>
